<svg width="288" height="220" viewBox="0 0 288 220" fill="none" xmlns="http://www.w3.org/2000/svg">
<path opacity="0.15" d="M113.8 32.7202H9V189.92H113.8V32.7202Z" fill="#0F5AC4"/>
<path d="M61.4 43.71C90.3397 43.71 113.8 39.0179 113.8 33.23C113.8 27.4421 90.3397 22.75 61.4 22.75C32.4603 22.75 9 27.4421 9 33.23C9 39.0179 32.4603 43.71 61.4 43.71Z" fill="#DFDFDF"/>
<path d="M61.4 200.39C90.3397 200.39 113.8 195.698 113.8 189.91C113.8 184.122 90.3397 179.43 61.4 179.43C32.4603 179.43 9 184.122 9 189.91C9 195.698 32.4603 200.39 61.4 200.39Z" fill="#2FA6F8"/>
<path d="M113.8 63.4502H9V189.91H113.8V63.4502Z" fill="#2FA6F8"/>
<path d="M61.4 74.6402C90.3397 74.6402 113.8 69.9481 113.8 64.1602C113.8 58.3722 90.3397 53.6802 61.4 53.6802C32.4603 53.6802 9 58.3722 9 64.1602C9 69.9481 32.4603 74.6402 61.4 74.6402Z" fill="#2FA6F8"/>
<path d="M113.8 64.1602C113.8 69.9402 90.34 74.6402 61.4 74.6402C32.46 74.6402 9 69.9402 9 64.1602" stroke="white" stroke-width="0.5" stroke-miterlimit="10"/>
<path d="M19.62 96.6801C13 94.9201 9 92.7301 9 90.3601" stroke="#202020" stroke-width="0.5" stroke-miterlimit="10"/>
<path d="M19.62 122.88C13 121.12 9 118.93 9 116.56" stroke="#202020" stroke-width="0.5" stroke-miterlimit="10"/>
<path d="M19.62 149.08C13 147.32 9 145.13 9 142.75" stroke="#202020" stroke-width="0.5" stroke-miterlimit="10"/>
<path d="M19.62 175.28C13 173.52 9 171.33 9 169" stroke="#202020" stroke-width="0.5" stroke-miterlimit="10"/>
<path d="M77.12 22.75H45.68V33.23H77.12V22.75Z" fill="#B3B3B3"/>
<path d="M61.4 36.37C70.0819 36.37 77.12 34.9642 77.12 33.23C77.12 31.4958 70.0819 30.09 61.4 30.09C52.7181 30.09 45.68 31.4958 45.68 33.23C45.68 34.9642 52.7181 36.37 61.4 36.37Z" fill="#B3B3B3"/>
<path d="M61.4 25.8901C70.0819 25.8901 77.12 24.4843 77.12 22.7501C77.12 21.0159 70.0819 19.6101 61.4 19.6101C52.7181 19.6101 45.68 21.0159 45.68 22.7501C45.68 24.4843 52.7181 25.8901 61.4 25.8901Z" fill="#DFDFDF"/>
<path d="M145.91 74.3102L145.29 85.4802C145.254 86.1036 144.975 86.688 144.513 87.1085C144.052 87.529 143.444 87.7521 142.82 87.7302L140.16 87.6402L138.44 102.2L124.82 97.8002L129.49 85.5102L131.49 78.4402C131.977 76.7309 133.076 75.2605 134.577 74.309C136.078 73.3574 137.876 72.9912 139.63 73.2802L145.91 74.3102Z" fill="#FA9DA2"/>
<path d="M140.16 87.64L135.3 87.25C135.3 87.25 139.64 92.87 139.55 92.68C139.46 92.49 140.16 87.64 140.16 87.64Z" fill="#312C2C"/>
<path d="M145.32 75.2901C143.892 76.7529 142.023 77.7053 140 78.0001C137.75 78.4401 135.16 78.5701 133.69 80.3301C133.08 81.0601 132.75 81.9901 132.2 82.7601C131.96 83.1717 131.602 83.502 131.172 83.7087C130.743 83.9154 130.262 83.989 129.79 83.9201C129.437 83.7789 129.119 83.5613 128.86 83.283C128.6 83.0047 128.406 82.6724 128.29 82.3101C127.747 80.9144 127.54 79.4103 127.686 77.9198C127.832 76.4292 128.326 74.9939 129.13 73.7301C130.779 71.2102 133.21 69.3022 136.05 68.3001C137.788 67.5929 139.671 67.3118 141.54 67.4801C143.13 67.6701 145.46 68.4801 146.29 69.9701C147.12 71.4601 146.47 74.0001 145.32 75.2901Z" fill="#082D62"/>
<path d="M123.88 74.7601C130.839 74.7601 136.48 69.1188 136.48 62.1601C136.48 55.2013 130.839 49.5601 123.88 49.5601C116.921 49.5601 111.28 55.2013 111.28 62.1601C111.28 69.1188 116.921 74.7601 123.88 74.7601Z" fill="#082D62"/>
<path d="M135.46 81.6302C136.83 81.6302 137.94 80.5198 137.94 79.1502C137.94 77.7805 136.83 76.6702 135.46 76.6702C134.09 76.6702 132.98 77.7805 132.98 79.1502C132.98 80.5198 134.09 81.6302 135.46 81.6302Z" fill="#FA9DA2"/>
<path fill-rule="evenodd" clip-rule="evenodd" d="M139.79 94.3701L150.12 118.52C150.641 119.552 150.789 120.733 150.537 121.862C150.285 122.99 149.65 123.997 148.74 124.71L147.21 125.93L142.05 156.11L105 170.77L109.46 138.7C113.7 104.16 126.13 89.8301 126.13 89.8301L139.79 94.3701Z" fill="#DFDFDF"/>
<path fill-rule="evenodd" clip-rule="evenodd" d="M121.81 199.92H265.15V181.82L119.27 161.92L121.81 199.92Z" fill="#082D62"/>
<path fill-rule="evenodd" clip-rule="evenodd" d="M265.15 199.92H276.79L279 169.44C279.032 169.02 278.915 168.602 278.668 168.26C278.421 167.919 278.06 167.676 277.651 167.575C277.242 167.474 276.81 167.522 276.432 167.71C276.055 167.897 275.757 168.213 275.59 168.6L271.75 177.6C271.339 178.566 270.675 179.403 269.829 180.024C268.983 180.646 267.985 181.027 266.94 181.13L262.85 181.54L265.15 199.92Z" fill="#082D62"/>
<path fill-rule="evenodd" clip-rule="evenodd" d="M105 170.77L103.75 178.77C103.338 181.385 103.498 184.058 104.218 186.605C104.939 189.152 106.202 191.513 107.923 193.525C109.643 195.537 111.779 197.153 114.183 198.26C116.587 199.367 119.203 199.941 121.85 199.94C126.696 199.937 131.344 198.018 134.78 194.6L181.46 148.14L201.5 185.3H220.33L201.5 136.21C199.752 131.686 196.674 127.797 192.671 125.057C188.669 122.317 183.93 120.853 179.08 120.86C173.846 120.856 168.754 122.562 164.58 125.72L105 170.77Z" fill="#0F5AC4"/>
<path fill-rule="evenodd" clip-rule="evenodd" d="M220.33 185.3L220.76 186.3C221.524 188.19 222.705 189.883 224.215 191.252C225.725 192.622 227.525 193.633 229.48 194.21L240.17 197.36C240.543 197.444 240.871 197.665 241.088 197.98C241.306 198.295 241.396 198.68 241.342 199.059C241.287 199.437 241.092 199.782 240.796 200.023C240.499 200.264 240.122 200.384 239.74 200.36H208.2L201.5 185.27L220.33 185.3Z" fill="#2FA6F8"/>
<path fill-rule="evenodd" clip-rule="evenodd" d="M122.74 121.66L144.89 140.6L146.05 132.69L122.74 121.66Z" fill="#312C2C"/>
<path fill-rule="evenodd" clip-rule="evenodd" d="M178.42 85.27L181.94 75.82C182.072 75.4633 182.313 75.1574 182.629 74.9455C182.945 74.7337 183.32 74.6268 183.7 74.64L194 75C194.158 75.0093 194.312 75.056 194.449 75.1364C194.585 75.2167 194.701 75.3284 194.786 75.4622C194.871 75.596 194.923 75.7481 194.937 75.906C194.952 76.0638 194.929 76.2229 194.87 76.37L189.41 89.2L178.22 90.95L178.42 85.27Z" fill="#082D62"/>
<path fill-rule="evenodd" clip-rule="evenodd" d="M185.27 76.1501C185.157 76.1332 185.041 76.1402 184.931 76.1707C184.82 76.2012 184.718 76.2544 184.629 76.327C184.54 76.3997 184.468 76.49 184.417 76.5923C184.365 76.6946 184.336 76.8065 184.33 76.9209C184.324 77.0353 184.343 77.1496 184.384 77.2564C184.425 77.3633 184.488 77.4603 184.569 77.5412C184.65 77.6222 184.748 77.6852 184.854 77.7264C184.961 77.7675 185.076 77.7858 185.19 77.7801C185.393 77.7699 185.585 77.6846 185.729 77.5407C185.873 77.3967 185.958 77.2045 185.968 77.0013C185.978 76.7981 185.912 76.5985 185.783 76.4412C185.654 76.2838 185.471 76.1801 185.27 76.1501Z" fill="white"/>
<path fill-rule="evenodd" clip-rule="evenodd" d="M175.74 99.0001L177 85.3601C177.006 85.1842 177.078 85.017 177.201 84.8909C177.323 84.7647 177.489 84.6887 177.664 84.6775C177.84 84.6663 178.013 84.7207 178.151 84.8302C178.289 84.9397 178.381 85.0965 178.41 85.2701L178.87 87.3401C178.993 87.8745 179.232 88.3751 179.571 88.8062C179.909 89.2373 180.339 89.5882 180.829 89.8338C181.32 90.0794 181.858 90.2136 182.406 90.2268C182.954 90.2399 183.499 90.1318 184 89.9101L190.08 87.2001L175.17 122.2C171.57 120.58 168.02 118.92 164.48 117.2L175.74 99.0001Z" fill="#FA9DA2"/>
<path fill-rule="evenodd" clip-rule="evenodd" d="M130.9 105.07C142.9 111.86 161.29 122.07 161.29 122.07L165.85 115.07L175.78 120.85C175.78 120.85 171.1 131.98 168.84 134.37C163.97 139.5 158.71 138.68 152.32 135.65L122.74 121.65C121.577 121.16 120.527 120.438 119.653 119.528C118.779 118.618 118.101 117.539 117.659 116.357C117.217 115.175 117.022 113.915 117.085 112.655C117.148 111.395 117.467 110.161 118.024 109.029C118.581 107.897 119.363 106.89 120.323 106.071C121.283 105.252 122.4 104.638 123.606 104.267C124.812 103.895 126.081 103.774 127.335 103.91C128.589 104.047 129.802 104.438 130.9 105.06" fill="#DFDFDF"/>
<path fill-rule="evenodd" clip-rule="evenodd" d="M238.75 102.81C227.99 102.89 222.57 97.5569 222.49 86.8102C222.41 76.0635 227.743 70.6435 238.49 70.5502C249.25 70.4702 254.673 75.8035 254.76 86.5502C254.847 97.2969 249.513 102.717 238.76 102.81" fill="#B3B3B3"/>
<path fill-rule="evenodd" clip-rule="evenodd" d="M223.87 87.3102L215.98 89.2002L225.01 91.6902L223.87 87.3102Z" fill="#B3B3B3"/>
<path fill-rule="evenodd" clip-rule="evenodd" d="M233.68 79.1301V94.2001L245.74 86.6701L233.68 79.1301Z" fill="white"/>
<path fill-rule="evenodd" clip-rule="evenodd" d="M173.69 52.0001C162.917 52.0801 157.493 46.7468 157.42 36.0001C157.347 25.2535 162.68 19.8335 173.42 19.7401C184.18 19.6601 189.6 24.9935 189.68 35.7401C189.76 46.4868 184.43 51.9068 173.69 52.0001Z" fill="#0F5AC4"/>
<path fill-rule="evenodd" clip-rule="evenodd" d="M170.69 49.9901L175.69 58.6401V48.8901L170.69 49.9901Z" fill="#0F5AC4"/>
<path fill-rule="evenodd" clip-rule="evenodd" d="M175.48 30.6602L170.7 39.2702L168.78 35.8302L164.96 42.7102H182.18L175.48 30.6602Z" fill="white"/>
<path fill-rule="evenodd" clip-rule="evenodd" d="M168.78 32.7402C169.156 32.7402 169.523 32.6288 169.836 32.42C170.148 32.2112 170.392 31.9145 170.535 31.5673C170.679 31.2201 170.717 30.8381 170.644 30.4695C170.57 30.101 170.389 29.7624 170.124 29.4967C169.858 29.231 169.519 29.05 169.151 28.9767C168.782 28.9034 168.4 28.941 168.053 29.0848C167.706 29.2286 167.409 29.4721 167.2 29.7846C166.991 30.0971 166.88 30.4644 166.88 30.8402C166.883 31.3433 167.084 31.825 167.439 32.1808C167.795 32.5365 168.277 32.7376 168.78 32.7402Z" fill="white"/>
<path fill-rule="evenodd" clip-rule="evenodd" d="M224 57.2301C213.24 57.3101 207.82 51.9768 207.74 41.2301C207.66 30.4835 212.993 25.0635 223.74 24.9701C234.5 24.8901 239.92 30.2235 240 40.9701C240.08 51.7168 234.747 57.1368 224 57.2301Z" fill="#FA9DA2"/>
<path fill-rule="evenodd" clip-rule="evenodd" d="M217.42 55.1301L211.87 60.7801L214.07 53.3401L217.42 55.1301Z" fill="#FA9DA2"/>
<path d="M231.44 35.6902H216.37C216.228 35.6902 216.088 35.7181 215.957 35.7724C215.826 35.8267 215.707 35.9062 215.606 36.0065C215.506 36.1068 215.426 36.2259 215.372 36.3569C215.318 36.4879 215.29 36.6284 215.29 36.7702V45.3802C215.293 45.6649 215.408 45.937 215.61 46.1374C215.812 46.3378 216.085 46.4502 216.37 46.4502H226.07L229.28 49.6702V46.4502H231.44C231.724 46.4502 231.996 46.3375 232.197 46.1368C232.397 45.9361 232.51 45.664 232.51 45.3802V36.7702C232.511 36.6288 232.485 36.4886 232.431 36.3576C232.378 36.2267 232.3 36.1075 232.2 36.0071C232.101 35.9067 231.982 35.827 231.852 35.7726C231.721 35.7182 231.581 35.6902 231.44 35.6902Z" fill="white"/>
</svg>
