<svg width="288" height="220" viewBox="0 0 288 220" fill="none" xmlns="http://www.w3.org/2000/svg">
<path d="M219.862 79.1498L222.699 73.6531C225.447 68.3337 230.9 65.009 236.884 65.009C245.705 65.009 252.842 72.1459 252.842 80.9672V198.881" stroke="#101010" stroke-width="0.7" stroke-miterlimit="10" stroke-linecap="round"/>
<path d="M220.4 79.9408L223.2 74.4441C225.948 69.1247 230.899 65.8 236.884 65.8C245.705 65.8 252 72.9369 252 81.7583V199.672" stroke="white" stroke-width="0.7" stroke-miterlimit="10" stroke-linecap="round"/>
<mask id="path-3-outside-1" maskUnits="userSpaceOnUse" x="195.697" y="76.9351" width="37" height="28" fill="black">
<rect fill="white" x="195.697" y="76.9351" width="37" height="28"/>
<path fill-rule="evenodd" clip-rule="evenodd" d="M220.224 79.1498C229.499 82.696 234.092 92.9802 230.445 102.112L230.405 102.096C230.389 102.15 230.371 102.204 230.351 102.256C229.263 104.991 220.873 104.314 211.612 100.744C202.352 97.1735 195.726 92.0616 196.814 89.3262C196.859 89.2129 196.917 89.1054 196.986 89.0038C200.664 80.0127 211.021 75.6306 220.224 79.1498Z"/>
</mask>
<path fill-rule="evenodd" clip-rule="evenodd" d="M220.224 79.1498C229.499 82.696 234.092 92.9802 230.445 102.112L230.405 102.096C230.389 102.15 230.371 102.204 230.351 102.256C229.263 104.991 220.873 104.314 211.612 100.744C202.352 97.1735 195.726 92.0616 196.814 89.3262C196.859 89.2129 196.917 89.1054 196.986 89.0038C200.664 80.0127 211.021 75.6306 220.224 79.1498Z" fill="#101010"/>
<path d="M230.445 102.112L230.193 102.765L230.838 103.013L231.095 102.371L230.445 102.112ZM220.224 79.1498L219.974 79.8036L220.224 79.1498ZM230.405 102.096L230.656 101.443L229.939 101.167L229.731 101.907L230.405 102.096ZM230.351 102.256L229.7 101.997L229.7 101.997L230.351 102.256ZM196.814 89.3262L196.164 89.0675H196.164L196.814 89.3262ZM196.986 89.0038L197.564 89.3995L197.606 89.3379L197.634 89.2688L196.986 89.0038ZM231.095 102.371C234.89 92.8693 230.106 82.1787 220.474 78.4959L219.974 79.8036C228.892 83.2134 233.293 93.0912 229.795 101.852L231.095 102.371ZM230.153 102.75L230.193 102.765L230.696 101.458L230.656 101.443L230.153 102.75ZM231.001 102.515C231.031 102.44 231.057 102.363 231.078 102.286L229.731 101.907C229.722 101.938 229.712 101.968 229.7 101.997L231.001 102.515ZM211.361 101.397C216.036 103.2 220.515 104.282 223.99 104.562C225.723 104.702 227.246 104.646 228.433 104.356C229.595 104.071 230.603 103.515 231.001 102.515L229.7 101.997C229.554 102.364 229.106 102.749 228.1 102.996C227.118 103.236 225.761 103.301 224.103 103.167C220.796 102.9 216.45 101.859 211.864 100.091L211.361 101.397ZM196.164 89.0675C195.764 90.0719 196.123 91.1607 196.782 92.1503C197.455 93.159 198.536 94.22 199.905 95.2761C202.65 97.3942 206.686 99.5946 211.361 101.397L211.864 100.091C207.278 98.3228 203.371 96.1821 200.76 94.1677C199.451 93.1575 198.501 92.2045 197.947 91.3739C197.381 90.5241 197.32 89.9481 197.464 89.5849L196.164 89.0675ZM196.409 88.608C196.311 88.7514 196.228 88.9046 196.164 89.0675L197.464 89.5849C197.49 89.5211 197.523 89.4594 197.564 89.3995L196.409 88.608ZM220.474 78.4959C210.925 74.8446 200.164 79.3863 196.338 88.7388L197.634 89.2688C201.164 80.6392 211.116 76.4166 219.974 79.8036L220.474 78.4959Z" fill="white" mask="url(#path-3-outside-1)"/>
<path d="M210.68 89.168C210.365 89.5669 210.095 90.0102 209.87 90.5422C208.789 93.2905 210.14 96.3492 212.931 97.413C215.723 98.4769 218.829 97.1471 219.91 94.3987C220.09 93.9111 220.225 93.3792 220.27 92.8916C218.784 92.1823 217.208 91.473 215.542 90.8081C213.922 90.1875 212.256 89.6556 210.68 89.168Z" fill="white"/>
<path d="M230.4 102.245C225.042 92.1379 206.583 85.4886 196.858 89.3009" stroke="white" stroke-width="0.7" stroke-miterlimit="10" stroke-linecap="round"/>
<path d="M243.949 196.105H261.701C264.055 196.105 266.313 197.041 267.978 198.705C269.642 200.37 270.578 202.628 270.578 204.982V206.757H235.073V204.982C235.073 202.628 236.008 200.37 237.672 198.705C239.337 197.041 241.595 196.105 243.949 196.105Z" fill="#101010" stroke="white" stroke-width="0.7" stroke-miterlimit="10" stroke-linecap="round"/>
<path d="M122.028 115.043C114.892 113.538 111.674 102.674 111.674 102.674C111.674 102.674 100.872 100.596 102.097 95.0501C103.322 89.5046 109.229 91.0941 111.151 93.7181C113.072 96.3421 116.649 89.4113 118.349 86.6763C120.049 83.9413 133.656 84.1988 137.584 87.9772C141.512 91.7556 137.486 118.276 122.028 115.043Z" fill="#101010" stroke="white" stroke-width="0.7" stroke-miterlimit="10"/>
<path d="M131.974 100.564C131.974 100.564 130.346 104.365 130.825 107.717" stroke="white" stroke-width="0.7" stroke-miterlimit="10" stroke-linecap="round"/>
<path d="M126.675 101.897C127.337 101.897 127.874 101.36 127.874 100.698C127.874 100.036 127.337 99.499 126.675 99.499C126.014 99.499 125.477 100.036 125.477 100.698C125.477 101.36 126.014 101.897 126.675 101.897Z" fill="white"/>
<path d="M106.979 96.573C107.236 96.573 111.364 95.894 112.549 98.5968" stroke="white" stroke-width="0.7" stroke-miterlimit="10" stroke-linecap="round"/>
<path d="M146.771 89.9795C152.949 85.0955 147.707 77.0458 140.877 80.3536C144.792 74.182 135.804 70.0617 131.451 75.6028C127.687 80.398 109.832 68.7208 107.698 91.64C109.726 91.9908 109.801 92.9498 110.804 94.2552C116.441 101.652 119.681 96.342 123.173 92.1817C125.188 89.7885 127.918 89.42 130.492 90.2103C130.383 91.0876 130.5 91.9781 130.832 92.7975C131.163 93.617 131.698 94.3382 132.386 94.893C133.074 95.4479 133.892 95.8179 134.763 95.9681C135.634 96.1183 136.528 96.0437 137.362 95.7514C143.092 102.252 151.444 94.2063 146.771 89.9795Z" fill="white"/>
<path d="M139.538 97.509C144.928 100.354 150.877 93.693 146.771 89.9795C152.949 85.0955 147.707 77.0458 140.877 80.3536C144.791 74.182 135.804 70.0617 131.45 75.6028C127.741 80.3288 110.345 69.0544 107.8 90.6692" stroke="#101010" stroke-width="0.7" stroke-miterlimit="10" stroke-linecap="round"/>
<path d="M186.542 116.561C187.248 116.561 187.925 116.842 188.424 117.341C188.924 117.84 189.204 118.518 189.204 119.224V135.201C189.204 135.907 188.924 136.585 188.424 137.084C187.925 137.583 187.248 137.864 186.542 137.864H159.913C159.207 137.864 158.529 137.583 158.03 137.084C157.53 136.585 157.25 135.907 157.25 135.201V119.224C157.25 118.518 157.53 117.84 158.03 117.341C158.529 116.842 159.207 116.561 159.913 116.561H186.542ZM186.542 115.673H159.913C158.971 115.673 158.068 116.047 157.402 116.713C156.736 117.379 156.362 118.282 156.362 119.224V135.201C156.362 136.143 156.736 137.046 157.402 137.712C158.068 138.378 158.971 138.752 159.913 138.752H186.542C187.483 138.752 188.386 138.378 189.052 137.712C189.718 137.046 190.092 136.143 190.092 135.201V119.224C190.092 118.282 189.718 117.379 189.052 116.713C188.386 116.047 187.483 115.673 186.542 115.673Z" fill="#101010"/>
<path d="M69.3575 82.0457H24.9763V56.6862C24.9763 53.7721 25.5503 50.8865 26.6655 48.1942C27.7806 45.5019 29.4152 43.0557 31.4758 40.9951C33.5364 38.9345 35.9826 37.2999 38.6749 36.1847C41.3672 35.0696 44.2528 34.4956 47.1669 34.4956V34.4956C53.0522 34.4956 58.6965 36.8335 62.8581 40.9951C67.0196 45.1566 69.3575 50.8009 69.3575 56.6862V82.0457V82.0457Z" stroke="white" stroke-width="0.7" stroke-miterlimit="10"/>
<path d="M73.4455 73.4617L73.4455 139.334H7.57365L7.57365 73.4617L73.4455 73.4617Z" fill="#101010" stroke="white" stroke-width="0.7"/>
<path fill-rule="evenodd" clip-rule="evenodd" d="M44.1623 170.191C54.3966 145.449 82.4722 119.193 111.981 119.193C142.4 119.193 156.096 134.993 161.688 166.446L168.789 141.974L198.8 143.749L182.632 206.757H117.254H69.8679H69.8635C49.7588 206.757 36.4844 188.765 44.1623 170.191Z" fill="white"/>
<path d="M44.1623 170.191L43.8389 170.058L43.8389 170.058L44.1623 170.191ZM161.688 166.446L161.344 166.507L161.606 167.984L162.024 166.543L161.688 166.446ZM168.789 141.974L168.81 141.624L168.531 141.608L168.453 141.876L168.789 141.974ZM198.8 143.749L199.139 143.836L199.244 143.425L198.821 143.4L198.8 143.749ZM182.632 206.757V207.107H182.903L182.971 206.844L182.632 206.757ZM111.981 118.843C97.1238 118.843 82.6525 125.451 70.6242 135.141C58.5952 144.832 48.9802 157.628 43.8389 170.058L44.4857 170.325C49.5788 158.012 59.1187 145.309 71.0633 135.686C83.0087 126.063 97.3297 119.543 111.981 119.543V118.843ZM162.033 166.384C159.231 150.627 154.391 138.731 146.392 130.776C138.382 122.811 127.253 118.843 111.981 118.843V119.543C127.128 119.543 138.057 123.475 145.898 131.273C153.749 139.081 158.553 150.811 161.344 166.507L162.033 166.384ZM168.453 141.876L161.352 166.348L162.024 166.543L169.125 142.071L168.453 141.876ZM198.821 143.4L168.81 141.624L168.769 142.323L198.779 144.098L198.821 143.4ZM182.971 206.844L199.139 143.836L198.461 143.662L182.293 206.67L182.971 206.844ZM117.254 207.107H182.632V206.407H117.254V207.107ZM69.8679 207.107H117.254V206.407H69.8679V207.107ZM69.8635 207.107H69.8679V206.407H69.8635V207.107ZM43.8389 170.058C39.9544 179.454 41.3665 188.723 46.3096 195.643C51.2507 202.559 59.7041 207.107 69.8635 207.107V206.407C59.9181 206.407 51.682 201.959 46.8792 195.236C42.0784 188.516 40.6922 179.502 44.4858 170.325L43.8389 170.058Z" fill="#101010"/>
<path d="M140.7 155.847C140.7 155.847 143.767 181.562 143.767 206.588" stroke="#101010" stroke-width="0.7" stroke-miterlimit="10" stroke-linecap="round"/>
<path fill-rule="evenodd" clip-rule="evenodd" d="M24.8296 139.626H65.8103C72.1677 133.697 79.3912 128.595 87.1098 124.949V73.1738H24.8296V139.626ZM159.913 116.117H186.542C188.257 116.117 189.648 117.508 189.648 119.224V135.201C189.648 136.917 188.257 138.308 186.542 138.308H159.913C158.197 138.308 156.806 136.917 156.806 135.201V119.224C156.806 117.508 158.197 116.117 159.913 116.117ZM128.42 206.757H164.063H239.373H239.378L239.678 205.996L241.149 202.319H241.127L260.237 153.837C260.974 152.146 259.62 150.286 257.636 150.286H190.248C189.157 150.267 188.085 150.566 187.161 151.147C186.238 151.728 185.505 152.565 185.051 153.557L165.814 202.319H132.858C131.681 202.319 130.552 202.786 129.72 203.619C128.888 204.451 128.42 205.58 128.42 206.757Z" fill="url(#paint0_linear)"/>
<path d="M189.65 121H156.81V126.326H189.65V121Z" fill="#101010"/>
<path d="M170.085 131.188C171.292 123.523 174.119 123.332 187.971 126.306C191.734 118.588 195.116 118.761 196.173 120.443C197.504 122.578 193.483 130.127 193.483 130.127C193.483 130.127 194.087 137.445 191.677 143.854L176.436 142.966C173.143 140.215 169.384 135.621 170.085 131.188Z" fill="#101010" stroke="white" stroke-width="0.7" stroke-linejoin="round"/>
<path d="M172.007 126.252L182.747 129.08" stroke="white" stroke-width="0.7" stroke-miterlimit="10" stroke-linecap="round"/>
<path d="M171.164 129.08L181.234 133.735" stroke="white" stroke-width="0.7" stroke-miterlimit="10" stroke-linecap="round"/>
<path d="M170.205 132.563L177.417 137.601" stroke="white" stroke-width="0.7" stroke-miterlimit="10" stroke-linecap="round"/>
<path d="M188.779 126.368L191.872 127.504" stroke="white" stroke-width="0.7" stroke-miterlimit="10" stroke-linecap="round"/>
<path d="M55.4705 107.33C59.6717 107.33 63.0774 103.924 63.0774 99.7227C63.0774 95.5215 59.6717 92.1157 55.4705 92.1157C51.2693 92.1157 47.8635 95.5215 47.8635 99.7227C47.8635 103.924 51.2693 107.33 55.4705 107.33Z" fill="#101010"/>
<path d="M67.8972 122.743C67.8972 119.447 66.588 116.287 64.2575 113.956C61.927 111.626 58.7662 110.316 55.4705 110.316C52.1747 110.316 49.0139 111.626 46.6834 113.956C44.3529 116.287 43.0437 119.447 43.0437 122.743" fill="#101010"/>
<path d="M213.104 185.179C216.045 185.179 218.429 182.794 218.429 179.853C218.429 176.912 216.045 174.527 213.104 174.527C210.162 174.527 207.778 176.912 207.778 179.853C207.778 182.794 210.162 185.179 213.104 185.179Z" fill="white"/>
<path d="M2 206.757H286" stroke="#101010" stroke-width="0.7" stroke-miterlimit="10" stroke-linecap="round"/>
<path d="M2 207.645H286" stroke="white" stroke-width="0.7" stroke-miterlimit="10" stroke-linecap="round"/>
<path d="M151.221 189.605C155.236 193.775 150.47 196.007 145.938 192.597C150.972 196.65 145.722 200.872 143.225 198.044C145.915 202.704 140.214 204.587 137.588 201.098C138.795 203.515 136.083 207.576 131.379 203.241C126.941 199.149 121.654 201.872 116.607 202.385C118.256 196.47 122.246 184 125.016 181.441C133.271 181.614 144.835 182.976 151.221 189.605Z" fill="#101010"/>
<path d="M137.242 200.584C135.884 198.643 134.164 196.983 132.177 195.694" stroke="white" stroke-width="0.7" stroke-miterlimit="10" stroke-linecap="round"/>
<path d="M143.224 198.044C143.224 198.044 140.114 193.986 136.685 192.588" stroke="white" stroke-width="0.7" stroke-miterlimit="10" stroke-linecap="round"/>
<path d="M145.96 192.595C144.474 191.198 142.724 190.112 140.813 189.402" stroke="white" stroke-width="0.7" stroke-miterlimit="10" stroke-linecap="round"/>
<path d="M71 206.765H115.418C115.418 206.765 120.019 186.026 127.706 177.754H79.641L97.2515 156.5" stroke="#101010" stroke-width="0.7" stroke-miterlimit="10" stroke-linecap="round"/>
<path d="M164.5 206.5L166 202.5" stroke="#101010" stroke-width="0.70414" stroke-miterlimit="10" stroke-linecap="round"/>
<defs>
<linearGradient id="paint0_linear" x1="-67.844" y1="45.865" x2="-20.0411" y2="308.435" gradientUnits="userSpaceOnUse">
<stop stop-color="#3DC4FD"/>
<stop offset="0.0001" stop-color="#FC6161"/>
<stop offset="0.384634" stop-color="#1370F5"/>
<stop offset="0.614583" stop-color="#2FA6F8"/>
<stop offset="0.951087" stop-color="#FBFFBE"/>
</linearGradient>
</defs>
</svg>
